inDegrees=no
num_controls=7
num_derivatives=13
num_iterations=214
num_multipliers=7
num_parameters=0
num_slacks=7
num_states=26
objective=5.566920
objective_accelerations=0.444009
objective_balance=0.022661
objective_effort=0.472645
objective_height=4.531228
objective_ligament=0.096376
solver_duration=2334.770333
status=Solve_Succeeded
success=true
DataType=double
version=3
OpenSimVersion=4.4-2022-07-23-0e9fedc
endheader
time	/jointset/ground_pelvis/pelvis_tilt/value	/jointset/ground_pelvis/pelvis_tx/value	/jointset/ground_pelvis/pelvis_ty/value	/jointset/hip_l/hip_flexion_l/value	/jointset/hip_l/hip_adduction_l/value	/jointset/hip_l/hip_rotation_l/value	/jointset/back/lumbar_extension/value	/jointset/patellofemoral_l/patellar_flexion_l/value	/jointset/knee_l/knee_flexion_l/value	/jointset/knee_l/knee_adduction_l/value	/jointset/knee_l/knee_rotation_l/value	/jointset/ankle_l/ankle_angle_l/value	/jointset/subtalar_l/subtalar_angle_l/value	/jointset/ground_pelvis/pelvis_tilt/speed	/jointset/ground_pelvis/pelvis_tx/speed	/jointset/ground_pelvis/pelvis_ty/speed	/jointset/hip_l/hip_flexion_l/speed	/jointset/hip_l/hip_adduction_l/speed	/jointset/hip_l/hip_rotation_l/speed	/jointset/back/lumbar_extension/speed	/jointset/patellofemoral_l/patellar_flexion_l/speed	/jointset/knee_l/knee_flexion_l/speed	/jointset/knee_l/knee_adduction_l/speed	/jointset/knee_l/knee_rotation_l/speed	/jointset/ankle_l/ankle_angle_l/speed	/jointset/subtalar_l/subtalar_angle_l/speed	/forceset/tau_hip_flexion_l	/forceset/tau_hip_adduction_l	/forceset/tau_hip_rotation_l	/forceset/tau_knee_flexion_l	/forceset/tau_ankle_angle_l	/forceset/tau_subtalar_angle_l	/forceset/tau_lumbar_extension	lambda_cid13_p0	lambda_cid13_p1	lambda_cid13_p2	lambda_cid13_p3	lambda_cid13_p4	lambda_cid13_p5	lambda_cid14_p0	/jointset/ground_pelvis/pelvis_tilt/accel	/jointset/ground_pelvis/pelvis_tx/accel	/jointset/ground_pelvis/pelvis_ty/accel	/jointset/hip_l/hip_flexion_l/accel	/jointset/hip_l/hip_adduction_l/accel	/jointset/hip_l/hip_rotation_l/accel	/jointset/back/lumbar_extension/accel	/jointset/patellofemoral_l/patellar_flexion_l/accel	/jointset/knee_l/knee_flexion_l/accel	/jointset/knee_l/knee_adduction_l/accel	/jointset/knee_l/knee_rotation_l/accel	/jointset/ankle_l/ankle_angle_l/accel	/jointset/subtalar_l/subtalar_angle_l/accel	gamma_cid13_p0	gamma_cid13_p1	gamma_cid13_p2	gamma_cid13_p3	gamma_cid13_p4	gamma_cid13_p5	gamma_cid14_p0
1.5	-0.002821993784648924	-0.0238235420000595	0.8651812660864829	0.6375962153086894	-0.3162025916927356	-0.1653811919482859	-0.7887470266600362	0.673844695181653	0.6738446951816547	-0.10947751363334	-0.1745326564422899	0.08925166913793557	0.00826737605851619	0.3545042743533154	0.2703157039979166	0.3604157542272118	-1.880274536420144	0.09239246287846872	-0.5661765131180904	0.8399186536610201	-1.725989726297036	-1.72598972629703	-0.1271100221685393	6.644951636822026e-06	-0.2971147688081325	0.004043778036796977	-0.1991730241690585	0.01172442098597153	-0.004098850313024088	-0.2057186089024468	0.09472975897061946	0.04704351617077339	0.2788050089042632	-12.0848585556092	-20.56582292760357	5.395396577586999	-8.848357234678248	-673.0504680729408	-82.79745940849226	-18.85967555514736	-0.01783401279022708	0.6405488516624291	-0.522816374947798	-0.6538096620821976	0.3666543829847467	-0.2496747758744753	1.823549866519394	-0.74624066984211	-0.7462406698421173	-0.2895393486507612	0.03656343128021591	-0.05058636616334655	0.3684712064308708	3.059966726082126e-08	1.140455246126331e-06	7.185484615559965e-08	1.609424695876855e-07	1.198062238944538e-07	2.160193107738816e-07	1.211475628830566e-07
1.51	0.0007217810153626378	-0.02108862086256975	0.8687585784669262	0.6187628107118515	-0.3152608402935672	-0.1710565435935591	-0.7802578990408889	0.6565496894500326	0.6565496894500354	-0.1107630803895596	-0.1745326104671381	0.08627838210083745	0.008325792639093494	0.3542032435421666	0.2766386445778786	0.3549769515383246	-1.886167000153097	0.09595177176544317	-0.5688368119704831	0.8577907865026614	-1.732775365713337	-1.732775365713337	-0.1299975297877057	1.455280021281005e-06	-0.2974829269157693	0.007649466083864554	-0.1919043587489117	0.01101512948276725	-0.004046681364246539	-0.2026827459792168	0.09442363666926296	0.0461454714707883	0.2718974874172265	-11.98332198740704	-20.23509165917718	5.390084798859219	-8.658387418970163	-669.1480415612509	-82.6256245268612	-19.40638129945448	-0.04336209890301591	0.6237201288244567	-0.56485661979616	-0.5210674571326642	0.3494837589946745	-0.2655566308280936	1.751632443131114	-0.6093404699191938	-0.6093404699200801	-0.2872731332752028	-0.01921820112675714	-0.02094048747894117	0.3579014151340569	1.761762565906926e-08	1.175253167937408e-06	1.187010881990996e-07	1.712302736161627e-07	1.105110697661293e-07	2.153177896792909e-07	1.172203705955596e-07
1.52	0.004261120610537525	-0.01829135962574811	0.872279413939693	0.5998776609320378	-0.3142837128820412	-0.1767567680655361	-0.7715935326032964	0.6391939043457703	0.6391939043457739	-0.1120773055549158	-0.1745326479956507	0.08330321149178012	0.00842052286239937	0.3536172333859845	0.2827837238642923	0.3491203726919557	-1.89062357301528	0.09946766535005093	-0.5711510784591319	0.874966417350088	-1.738145600825441	-1.738145600825446	-0.1328417039958964	-1.005578136696243e-05	-0.2974914832000101	0.01130650658250663	-0.1846356933287642	0.01030583797956891	-0.003994512415474842	-0.1996468830559857	0.09411751436790869	0.04524742677081053	0.2649899659301884	-11.88692710093669	-19.90412981174929	5.385501156694017	-8.476460910826365	-665.3378902563445	-82.4761554722004	-19.93214498193842	-0.07482988179685951	0.6049765929527845	-0.606371606444121	-0.3666314879279504	0.3579713225114071	-0.1804683031256773	1.684249467676496	-0.4631598090024779	-0.4631598090024779	-0.2808726664556374	0.0352991533256661	0.02133399851582617	0.3787416967457625	1.733531875827222e-08	1.178367788015628e-06	1.008061953198225e-07	1.698608387561453e-07	1.139074481311555e-07	2.221189474101972e-07	1.185710202458302e-07
1.53	0.007793157774645595	-0.01543359395514421	0.8757396537035158	0.580955139025137	-0.3132717138157344	-0.1824781500070881	-0.7627610327643994	0.6217914983316013	0.621791498331609	-0.1134200013632592	-0.1745326565043192	0.08032973580932831	0.008551998198790418	0.3527404513345633	0.2887333477953959	0.3428635292716857	-1.893634124305814	0.1029225784639491	-0.5730692203420759	0.8914028586638642	-1.74209302066018	-1.742093020660181	-0.1356877849765423	5.33257742542308e-06	-0.2971428315449656	0.01499538072967424	-0.1772314392469712	0.009467212102944215	-0.003999722741251409	-0.1967820615402245	0.09395892560321829	0.04428422490949249	0.2579699421681685	-11.75442945973077	-19.54854834808734	5.373973268765258	-8.272267411446149	-661.6411401812275	-82.30829296303133	-20.43374097118699	-0.1015699843824825	0.5845756723294703	-0.6449203647693326	-0.231270633795312	0.3376663355514661	-0.1889605524981827	1.603737698419882	-0.3241717194547751	-0.3241717194540207	-0.2848311909030213	-0.01582163415175161	0.05078467311896851	0.3648081400372851	3.05464799772397e-08	1.14781890000269e-06	1.412384658509544e-08	1.561055875771027e-07	1.307885797703668e-07	2.36891701393194e-07	1.255293769549791e-07
1.54	0.01131493359472493	-0.01251740796940121	0.8791354091021457	0.5620099108684938	-0.3122254826123457	-0.1882170080517911	-0.7537680892653265	0.6043568903893397	0.6043568903893446	-0.1147908290568184	-0.1745326071916822	0.0773615774282512	0.008720531849920145	0.351564964580432	0.2944677868921109	0.3362234996533757	-1.895164822963515	0.1063140927667441	-0.5746462990897961	0.9070551493853087	-1.744585986444724	-1.744585986444719	-0.138468081038546	1.508483906403876e-06	-0.2964280229251131	0.01871816953024314	-0.1698271851651765	0.008628586226325211	-0.004004933067079706	-0.193917240024459	0.09380033683853062	0.0433210230481833	0.2509499184061481	-11.62739396728337	-19.19224665033789	5.362600436224414	-8.075159010934959	-658.0410934035784	-82.16608154919076	-20.90796799132987	-0.1345708223388861	0.561939626075069	-0.6830088460521339	-0.07066096136120911	0.3452915602907768	-0.1122556760809444	1.527419349210197	-0.1722689989632899	-0.17226899896329	-0.2677156827272208	0.03145666286339698	0.09456539147742708	0.3855246274260181	3.301623700286936e-08	1.133506669846976e-06	-1.912270602485482e-08	1.500220216604244e-07	1.371402020163733e-07	2.427564426260157e-07	1.269466414141418e-07
1.55	0.01482343840626918	-0.009545028160046662	0.8824629091462721	0.5430568633006296	-0.311145634559031	-0.1939699138843073	-0.7446226696821492	0.5869046771339093	0.5869046771339093	-0.1161890636307792	-0.1745326478253491	0.07440239519132263	0.008926488191334056	0.3500865086596728	0.2999644228228537	0.3292188569357984	-1.895192055150171	0.1096407634003852	-0.5758687678118692	0.9218818327393929	-1.745608735117547	-1.745608735117542	-0.1411737721137127	-7.474842199785294e-06	-0.2953493623226697	0.02247391441343913	-0.1623757106550965	0.007727811563597451	-0.004055268253658827	-0.1911044798006451	0.09360620533942446	0.04229586633398	0.2438841577361393	-11.52577062293098	-18.80277750211023	5.343871065711216	-7.800725828235119	-654.5894185760917	-81.98689501966274	-21.35163805457184	-0.1619149942135219	0.5369936148442758	-0.7178141902732335	0.06913108545191879	0.3239806929440608	-0.1172262455963587	1.438252651902898	-0.03011221686280736	-0.03011221686279758	-0.2710384551582352	-0.0167696450389533	0.123404806129884	0.3705387953421755	2.311002832748005e-08	1.137901893309369e-06	9.198071682869194e-09	1.527775713721217e-07	1.313599982223837e-07	2.383576039510275e-07	1.219796039331035e-07
1.56	0.01831567225515133	-0.006518988383730606	0.88571863832209	0.5241111204974519	-0.3100329946237726	-0.1997330411591078	-0.735333391300752	0.5694496695086646	0.569449669508663	-0.1176141636425384	-0.1745327170551675	0.07145577724271893	0.009169989856895065	0.3483107720481505	0.3051997802844118	0.3218693259917088	-1.893703870026037	0.112872469155757	-0.5766905875469772	0.9358269090292916	-1.745144860407209	-1.745144860407205	-0.1438411685987534	-4.210755958589113e-06	-0.2939151652601424	0.02622723435966682	-0.1549242361450172	0.00682703690087376	-0.004105603440215004	-0.1882917195768325	0.09341207384031942	0.04127070961978087	0.2368183970661285	-11.43011677964623	-18.4118096184425	5.324384926564283	-7.529290532488365	-651.2402588217602	-81.82886507156333	-21.76165358381252	-0.1940269604914988	0.5096839322381426	-0.7519864913546395	0.2324225007968888	0.3262985846368907	-0.03212587868792842	1.351097936373058	0.1250556776688339	0.1250556776688344	-0.2600567647020322	0.03390614533285965	0.1656726834942158	0.3850396400323519	1.794466653784769e-08	1.133575457295506e-06	1.619234022479477e-08	1.518078174159063e-07	1.315759671505191e-07	2.377918101633305e-07	1.190208733567747e-07
1.57	0.02178862687984273	-0.003441978265387342	0.8888992104326677	0.5051879663934561	-0.308888482309456	-0.2055024040574848	-0.7259092029495376	0.5520068158799354	0.5520068158799341	-0.1190656111564686	-0.1745326766179144	0.06852528512147615	0.009451055086122408	0.3462278713091785	0.3101504621989794	0.3141936556153185	-1.89065851572831	0.1160158791943422	-0.5771244487269295	0.9488487068404207	-1.743164598661732	-1.743164598661724	-0.1464243879898753	6.432314500470441e-06	-0.2921221569896435	0.02998871385548198	-0.1473996198868038	0.005884527031661201	-0.004209409300217697	-0.1855867639824767	0.09327462399089892	0.04016329059223839	0.2296997369020122	-11.33209787678786	-17.98240842859787	5.295206434041165	-7.203759306992902	-648.059575990505	-81.62358156682669	-22.13500457914376	-0.2232731213400793	0.4800217316445839	-0.7830446416732186	0.380847116417073	0.3060910721413591	-0.04028543173726226	1.253412547514293	0.2736777616565076	0.2736777616570108	-0.2536723172318692	-0.01626245235061419	0.195307362443706	0.3719640983317554	1.870536335541146e-08	1.118346946936322e-06	-3.471527690527428e-09	1.461814338747998e-07	1.392871519813109e-07	2.420173224847476e-07	1.185725264113328e-07
1.58	0.02523918219899523	-0.0003170090457826898	0.8920014883733032	0.4863033168768673	-0.3077129901230214	-0.2112743594064778	-0.7163596582514057	0.5345915981363921	0.5345915981363955	-0.1205421344224894	-0.1745327109179763	0.06561456157566142	0.009769787509103005	0.3438309109406069	0.3147916005366895	0.3062104920032434	-1.886002952544322	0.1190684435798098	-0.5772090776704176	0.9608981784128082	-1.739617683369482	-1.739617683369471	-0.1488563190175822	-1.915822516103675e-05	-0.2899614501745059	0.03376067311032358	-0.1398750036285947	0.004942017162447743	-0.004313215160184221	-0.1828818083881251	0.09313717414147786	0.03905587156469565	0.2225810767378932	-11.24039005005351	-17.55117236826807	5.264902009926486	-6.879609226459025	-644.9851297819903	-81.43855587078986	-22.46885765755389	-0.2568388864114494	0.4477752168666328	-0.8134851384916315	0.554464278049158	0.3081294540133605	0.03772056860494698	1.156632688624759	0.4383863870234073	0.4383863870234075	-0.2297990920190149	0.02665942330883429	0.2392123924219313	0.3871355918376592	4.552961641463861e-08	1.097377832395838e-06	-1.318141567031239e-07	1.25462793316556e-07	1.858239157651994e-07	2.822763756727602e-07	1.321935772895553e-07
